<svg xmlns="http://www.w3.org/2000/svg" width="41.944" height="24.861" viewBox="0 0 41.944 24.861">
  <g id="Groupe_1" data-name="Groupe 1" transform="translate(0.503 0.5)">
    <path id="Tracé_7" data-name="Tracé 7" d="M205.622,0a6.56,6.56,0,0,1,6.552,6.622A6.587,6.587,0,1,1,205.622,0Zm0,1.394a5.193,5.193,0,1,0,5.158,5.228A5.177,5.177,0,0,0,205.622,1.394Z" transform="translate(-185.118 0)" fill="#fff" stroke="#fff" stroke-width="1"/>
    <path id="Tracé_8" data-name="Tracé 8" d="M154.181,213.992a.67.67,0,1,1-1.324-.209,9.891,9.891,0,0,1,19.657,0,.71.71,0,0,1-.627.767.621.621,0,0,1-.767-.558,8.519,8.519,0,0,0-16.938,0Z" transform="translate(-142.181 -190.71)" fill="#fff" stroke="#fff" stroke-width="1"/>
    <path id="Tracé_9" data-name="Tracé 9" d="M411.089,81A5.123,5.123,0,1,1,406,86.088,5.132,5.132,0,0,1,411.089,81Zm0,1.394a3.729,3.729,0,1,0,3.764,3.694A3.719,3.719,0,0,0,411.089,82.394Z" transform="translate(-377.689 -75.354)" fill="#fff" stroke="#fff" stroke-width="1"/>
    <path id="Tracé_10" data-name="Tracé 10" d="M425.263,240.091a.705.705,0,0,1-.976-.279.8.8,0,0,1,.349-.976,8.223,8.223,0,0,1,3.416-.836,7.643,7.643,0,0,1,7.528,6.483.653.653,0,0,1-.558.767.723.723,0,0,1-.836-.558,6.163,6.163,0,0,0-6.134-5.3A6.346,6.346,0,0,0,425.263,240.091Z" transform="translate(-394.652 -221.41)" fill="#fff" stroke="#fff" stroke-width="1"/>
    <path id="Tracé_11" data-name="Tracé 11" d="M39.158,81A5.123,5.123,0,1,1,34,86.088,5.117,5.117,0,0,1,39.158,81Zm0,1.394a3.729,3.729,0,1,0,3.694,3.694A3.734,3.734,0,0,0,39.158,82.394Z" transform="translate(-31.619 -75.354)" fill="#fff" stroke="#fff" stroke-width="1"/>
    <path id="Tracé_12" data-name="Tracé 12" d="M1.252,244.692a.691.691,0,0,1-.767.558.659.659,0,0,1-.627-.767A7.643,7.643,0,0,1,7.386,238a8.817,8.817,0,0,1,3.485.836.862.862,0,0,1,.279.976.705.705,0,0,1-.976.279,6.346,6.346,0,0,0-2.788-.7A6.163,6.163,0,0,0,1.252,244.692Z" transform="translate(0.153 -221.41)" fill="#fff" stroke="#fff" stroke-width="1"/>
  </g>
</svg>
