<svg xmlns="http://www.w3.org/2000/svg" width="26" height="26" viewBox="0 0 26 26">
  <path id="Icon_awesome-history" data-name="Icon awesome-history" d="M26.562,13.538A13,13,0,0,1,5.4,23.684a1.257,1.257,0,0,1-.1-1.866l.591-.591a1.26,1.26,0,0,1,1.672-.1A9.646,9.646,0,1,0,6.954,6.535L9.615,9.2a.839.839,0,0,1-.593,1.432H1.4a.839.839,0,0,1-.839-.839V2.168a.839.839,0,0,1,1.432-.593L4.582,4.163a13,13,0,0,1,21.98,9.375Zm-9.483,4.13.515-.662a1.258,1.258,0,0,0-.221-1.765L15.24,13.581V8.111a1.258,1.258,0,0,0-1.258-1.258h-.839a1.258,1.258,0,0,0-1.258,1.258v7.111l3.429,2.667a1.258,1.258,0,0,0,1.765-.221Z" transform="translate(-0.563 -0.563)" fill="#fff"/>
</svg>
