<svg xmlns="http://www.w3.org/2000/svg" width="26.196" height="26.195" viewBox="0 0 26.196 26.195">
  <path id="Icon_awesome-facebook-messenger" data-name="Icon awesome-facebook-messenger" d="M13.689.562C6.294.562.563,5.968.563,13.268a12.417,12.417,0,0,0,4.123,9.4c.441.4.35.626.425,3.075a1.052,1.052,0,0,0,1.472.928c2.794-1.231,2.83-1.328,3.3-1.2,8.1,2.228,16.871-2.953,16.871-12.2C26.758,5.968,21.086.562,13.689.562Zm7.882,9.778-3.855,6.1a1.974,1.974,0,0,1-2.847.524l-3.067-2.3a.792.792,0,0,0-.951,0L6.712,17.812a.623.623,0,0,1-.9-.828l3.855-6.1a1.973,1.973,0,0,1,2.847-.524l3.066,2.3a.792.792,0,0,0,.951,0l4.141-3.136a.621.621,0,0,1,.9.825Z" transform="translate(-0.563 -0.563)" fill="#070043"/>
</svg>
