<svg xmlns="http://www.w3.org/2000/svg" width="40.856" height="29.085" viewBox="0 0 40.856 29.085">
  <path id="Union_1" data-name="Union 1" d="M.694,29.085A.685.685,0,0,1,0,28.409V.676A.685.685,0,0,1,.694,0H29.213a.685.685,0,0,1,.694.676V3.128A11.523,11.523,0,0,1,40.856,14.479,11.523,11.523,0,0,1,29.907,25.83v2.579a.685.685,0,0,1-.694.676Zm.694-1.351H28.519V1.351H1.388Zm32.968-18.8a.25.25,0,0,0,.032.357,6.689,6.689,0,0,1,2.488,5.19,6.613,6.613,0,0,1-1.125,3.693.25.25,0,0,0,.076.351.267.267,0,0,0,.142.04.259.259,0,0,0,.217-.115,7.105,7.105,0,0,0,1.21-3.969A7.19,7.19,0,0,0,34.723,8.9a.266.266,0,0,0-.367.031Zm-.449,1.211a.248.248,0,0,0,.018.357c.135.118.262.243.384.374a5.254,5.254,0,0,1,.352,6.794.248.248,0,0,0,.055.354.265.265,0,0,0,.364-.054,5.749,5.749,0,0,0-.385-7.434,5.826,5.826,0,0,0-.419-.408.267.267,0,0,0-.175-.066A.262.262,0,0,0,33.907,10.146Zm-1.144.741a.248.248,0,0,0,.069.352,3.88,3.88,0,0,1,1.774,3.244,3.728,3.728,0,0,1-.063.693,3.857,3.857,0,0,1-.858,1.8.249.249,0,0,0,.034.357.27.27,0,0,0,.167.058.262.262,0,0,0,.2-.092,4.352,4.352,0,0,0,.969-2.03,4.212,4.212,0,0,0,.072-.784,4.381,4.381,0,0,0-2-3.663.267.267,0,0,0-.147-.044A.259.259,0,0,0,32.763,10.886Zm-2.856,6.459a2.9,2.9,0,0,0,0-5.727ZM9.532,14.51a5.353,5.353,0,0,1,5.421-5.272,5.515,5.515,0,0,1,1.8.3,5.215,5.215,0,0,1,.071,9.911,5.5,5.5,0,0,1-1.866.329A5.353,5.353,0,0,1,9.532,14.51Zm1.388,0a3.983,3.983,0,0,0,4.033,3.921,4.106,4.106,0,0,0,1.4-.248,12.6,12.6,0,0,1-.051-7.364,4.114,4.114,0,0,0-1.349-.23A3.983,3.983,0,0,0,10.921,14.51Z" fill="#fff"/>
</svg>
