<svg xmlns="http://www.w3.org/2000/svg" width="27.936" height="27.936" viewBox="0 0 27.936 27.936">
  <path id="send" d="M27.936,1.44a1.469,1.469,0,0,0-.077-.4C27.842.993,27.827.948,27.806.9A1.481,1.481,0,0,0,27.513.46a1.493,1.493,0,0,0-.441-.292,1.412,1.412,0,0,0-.141-.054,1.478,1.478,0,0,0-.4-.077c-.039,0-.076-.011-.115-.01A1.475,1.475,0,0,0,25.957.1L1.014,8.835A1.5,1.5,0,0,0,.9,11.622l10.7,4.754,4.753,10.7a1.5,1.5,0,0,0,1.371.891h.061a1.5,1.5,0,0,0,1.355-1l8.73-24.941a1.492,1.492,0,0,0,.078-.465C27.947,1.514,27.938,1.478,27.936,1.44ZM20.744,5.108,12.4,13.45,5.577,10.417ZM17.556,22.4l-3.033-6.825L22.864,7.23Z" transform="translate(-0.01 -0.027)" fill="#070043"/>
</svg>
