<svg id="Icon_awesome-share-square" data-name="Icon awesome-share-square" xmlns="http://www.w3.org/2000/svg" width="28.5" height="26" viewBox="0 0 28.5 26">
  <path id="Icon_awesome-share-square-2" data-name="Icon awesome-share-square" d="M28.128,9.011,21,15.917a1.185,1.185,0,0,1-2-.886V11.376c-7.153.049-10.171,1.783-8.153,8.7a.8.8,0,0,1-1.237.88,9.855,9.855,0,0,1-3.672-7.28c0-7.309,5.819-8.76,13.063-8.8V1.219a1.185,1.185,0,0,1,2-.886l7.125,6.906A1.241,1.241,0,0,1,28.128,9.011ZM19,19.253v3.5H3.167V6.5H5.686a.586.586,0,0,0,.428-.188A9.666,9.666,0,0,1,8.638,4.4.612.612,0,0,0,8.364,3.25H2.375A2.407,2.407,0,0,0,0,5.687V23.563A2.407,2.407,0,0,0,2.375,26H19.792a2.407,2.407,0,0,0,2.375-2.437v-4.51a.6.6,0,0,0-.792-.574,3.468,3.468,0,0,1-1.692.171A.6.6,0,0,0,19,19.253Z" transform="translate(0 0)" fill="#fff"/>
</svg>
