<svg xmlns="http://www.w3.org/2000/svg" width="40" height="17.371" viewBox="0 0 40 17.371">
  <path id="Icon_awesome-soundcloud" data-name="Icon awesome-soundcloud" d="M6.964,16.935,7.326,21l-.363,4.269a.3.3,0,0,1-.275.275.271.271,0,0,1-.263-.275L6.076,21l.35-4.063a.268.268,0,0,1,.263-.263A.3.3,0,0,1,6.964,16.935ZM8.3,14.085a.322.322,0,0,0-.313.313L7.676,21l.313,4.269a.322.322,0,0,0,.313.313.306.306,0,0,0,.294-.313L8.958,21,8.6,14.4A.306.306,0,0,0,8.3,14.085ZM9.9,12.578a.346.346,0,0,0-.35.331L9.27,21.036l.275,4.238a.346.346,0,0,0,.35.331.329.329,0,0,0,.331-.331l.331-4.238-.331-8.126A.329.329,0,0,0,9.9,12.578ZM.45,18.616c-.088,0-.138.069-.156.156L0,21l.294,2.188c.019.088.069.156.156.156s.138-.069.156-.156L.956,21l-.35-2.225c-.019-.088-.069-.156-.156-.156Zm1.475-1.369a.155.155,0,0,0-.156.156L1.369,21l.4,3.507a.16.16,0,0,0,.156.175.186.186,0,0,0,.175-.156L2.55,21,2.1,17.4a.186.186,0,0,0-.175-.156Zm1.581-.713a.217.217,0,0,0-.206.206L2.938,21,3.3,25.111a.225.225,0,0,0,.206.194.2.2,0,0,0,.194-.194L4.132,21,3.7,16.741a.2.2,0,0,0-.194-.206ZM5.088,16.4a.22.22,0,0,0-.225.225L4.5,21l.363,4.238a.22.22,0,0,0,.225.225.249.249,0,0,0,.244-.225L5.732,21l-.4-4.376A.249.249,0,0,0,5.088,16.4Zm15.09-6.932a.488.488,0,0,0-.263-.088.575.575,0,0,0-.35.119.641.641,0,0,0-.206.419v.05l-.206,11.045.106,2.032.106,1.982a.571.571,0,0,0,.556.538.542.542,0,0,0,.538-.538l.244-4.013-.244-11.1a.6.6,0,0,0-.281-.45Zm-1.669.956a.549.549,0,0,0-.275-.088.531.531,0,0,0-.275.088.494.494,0,0,0-.225.419l-.019.106L17.54,21s0,.019.194,4.1v.019a.471.471,0,0,0,.106.294.536.536,0,0,0,.4.194.507.507,0,0,0,.35-.156.431.431,0,0,0,.156-.35l.019-.419.194-3.663L18.753,10.84a.561.561,0,0,0-.244-.419Zm-6.964,1.406a.379.379,0,0,0-.363.381L10.908,21l.275,4.2a.372.372,0,0,0,.744,0l.313-4.2-.313-8.789A.391.391,0,0,0,11.546,11.828Zm23.547,3.926a5.02,5.02,0,0,0-1.913.381,8.687,8.687,0,0,0-8.645-7.9,8.524,8.524,0,0,0-3.144.588c-.381.138-.488.275-.488.575V25a.589.589,0,0,0,.538.575H35.087a4.913,4.913,0,0,0,.006-9.827ZM16.546,11.984a.5.5,0,0,0-.488.488l-.206,8.545.206,4.1a.493.493,0,0,0,.488.469.464.464,0,0,0,.469-.469l.244-4.1-.244-8.545A.481.481,0,0,0,16.546,11.984ZM13.2,11.5a.424.424,0,0,0-.4.419L12.552,21,12.8,25.18a.41.41,0,0,0,.819,0L13.89,21l-.275-9.083A.441.441,0,0,0,13.2,11.5Zm1.669.213a.428.428,0,0,0-.431.431L14.19,21l.244,4.151a.44.44,0,0,0,.431.431.432.432,0,0,0,.431-.431L15.559,21,15.3,12.14a.424.424,0,0,0-.431-.431Z" transform="translate(0 -8.234)" fill="#070043"/>
</svg>
