<svg xmlns="http://www.w3.org/2000/svg" width="28.226" height="22.925" viewBox="0 0 28.226 22.925">
  <path id="Icon_awesome-twitter" data-name="Icon awesome-twitter" d="M25.324,9.094c.018.251.018.5.018.752,0,7.647-5.821,16.459-16.459,16.459A16.347,16.347,0,0,1,0,23.708a11.968,11.968,0,0,0,1.4.072,11.585,11.585,0,0,0,7.182-2.472A5.8,5.8,0,0,1,3.17,17.3a7.3,7.3,0,0,0,1.093.09,6.118,6.118,0,0,0,1.522-.2,5.786,5.786,0,0,1-4.639-5.677V11.44a5.826,5.826,0,0,0,2.615.734A5.794,5.794,0,0,1,1.97,4.437,16.443,16.443,0,0,0,13.9,10.491a6.53,6.53,0,0,1-.143-1.325A5.79,5.79,0,0,1,23.766,5.208a11.389,11.389,0,0,0,3.672-1.4A5.769,5.769,0,0,1,24.895,7a11.6,11.6,0,0,0,3.331-.9,12.435,12.435,0,0,1-2.9,2.991Z" transform="translate(0 -3.381)" fill="#070043"/>
</svg>
